HIERARCHY
ROOT root
{
	OFFSET 0.000000 0.000000 0.000000
	CHANNELS 6 Xposition Yposition Zposition Zrotation Yrotation Xrotation
	JOINT lhip
	{
		OFFSET 0.058581 -0.082280 -0.017664
		CHANNELS 3 Zrotation Yrotation Xrotation
		JOINT lknee
		{
			OFFSET 0.043451 -0.386469 0.008037
			CHANNELS 3 Zrotation Yrotation Xrotation
			JOINT lankle
			{
				OFFSET -0.014790 -0.426874 -0.037428
				CHANNELS 3 Zrotation Yrotation Xrotation
				JOINT ltoe
				{
					OFFSET 0.041054 -0.060286 0.122042
					CHANNELS 3 Zrotation Yrotation Xrotation
					End Site
					{
						OFFSET 0.000000 0.000000 0.000000
					}
				}
			}
		}
	}
	JOINT rhip
	{
		OFFSET -0.060310 -0.090513 -0.013543
		CHANNELS 3 Zrotation Yrotation Xrotation
		JOINT rknee
		{
			OFFSET -0.043257 -0.383688 -0.004843
			CHANNELS 3 Zrotation Yrotation Xrotation
			JOINT rankle
			{
				OFFSET 0.019056 -0.420046 -0.034562
				CHANNELS 3 Zrotation Yrotation Xrotation
				JOINT rtoe
				{
					OFFSET -0.034840 -0.062106 0.130323
					CHANNELS 3 Zrotation Yrotation Xrotation
					End Site
					{
						OFFSET 0.000000 0.000000 0.000000
					}
				}
			}
		}
	}
	JOINT lowerback
	{
		OFFSET 0.004439 0.124404 -0.038385
		CHANNELS 3 Zrotation Yrotation Xrotation
		JOINT upperback
		{
			OFFSET 0.004488 0.137956 0.026820
			CHANNELS 3 Zrotation Yrotation Xrotation
			JOINT chest
			{
				OFFSET -0.002265 0.056032 0.002855
				CHANNELS 3 Zrotation Yrotation Xrotation
				JOINT lowerneck
				{
					OFFSET -0.013390 0.211636 -0.033468
					CHANNELS 3 Zrotation Yrotation Xrotation
					JOINT upperneck
					{
						OFFSET 0.010113 0.088937 0.050410
						CHANNELS 3 Zrotation Yrotation Xrotation
						End Site
						{
							OFFSET 0.000000 0.000000 0.000000
						}
					}
				}
				JOINT lclavicle
				{
					OFFSET 0.071702 0.114000 -0.018898
					CHANNELS 3 Zrotation Yrotation Xrotation
					JOINT lshoulder
					{
						OFFSET 0.122921 0.045205 -0.019046
						CHANNELS 3 Zrotation Yrotation Xrotation
						JOINT lelbow
						{
							OFFSET 0.255332 -0.015649 -0.022946
							CHANNELS 3 Zrotation Yrotation Xrotation
							JOINT lwrist
							{
								OFFSET 0.265709 0.012698 -0.007375
								CHANNELS 3 Zrotation Yrotation Xrotation
								End Site
								{
									OFFSET 0.000000 0.000000 0.000000
								}
							}
						}
					}
				}
				JOINT rclavicle
				{
					OFFSET -0.082954 0.112472 -0.023707
					CHANNELS 3 Zrotation Yrotation Xrotation
					JOINT rshoulder
					{
						OFFSET -0.113228 0.046853 -0.008472
						CHANNELS 3 Zrotation Yrotation Xrotation
						JOINT relbow
						{
							OFFSET -0.260127 -0.014369 -0.031269
							CHANNELS 3 Zrotation Yrotation Xrotation
							JOINT rwrist
							{
								OFFSET -0.269108 0.006794 -0.006027
								CHANNELS 3 Zrotation Yrotation Xrotation
								End Site
								{
									OFFSET 0.000000 0.000000 0.000000
								}
							}
						}
					}
				}
			}
		}
	}
}
MOTION
Frames: 5
Frame Time: 0.033333
-0.023055 2.814866 0.986548 2.150468 -1.123300 82.544013 -1.048642 -0.975907 10.315732 -2.285880 -12.907873 11.248342 4.490013 11.927362 -21.620576 0.000000 -0.000000 0.000000 -1.423312 -4.283073 -0.909198 -0.166435 -5.431121 7.176409 2.259792 -12.879864 -15.614954 0.000000 -0.000000 0.000000 -0.370717 -0.025839 8.073061 0.226187 -3.996657 13.319283 -0.792164 -0.835042 -0.587708 4.143268 9.036068 11.364482 5.219210 6.172309 22.774023 -28.108151 -6.627390 9.743064 -44.812129 -7.643732 10.518075 -1.235700 -23.295418 8.261558 -0.424300 -3.207659 0.142723 31.478524 9.258681 12.991317 51.917920 8.585266 10.254237 -12.730871 19.457436 -13.002795 1.743894 4.218753 -12.152103 
-0.019820 2.826912 0.987643 1.746401 -1.181419 82.156162 -1.031729 -0.989400 9.456174 -3.045406 -12.666989 11.991368 4.695367 11.976720 -21.059408 0.000000 -0.000000 0.000000 -1.681321 -4.311304 -1.807293 -0.094694 -5.564441 8.089126 2.598521 -12.869477 -15.415280 0.000000 -0.000000 0.000000 -1.004495 0.205598 8.541073 0.007959 -3.654347 12.872468 -0.835378 -0.654802 -0.061043 4.452593 9.122850 11.527424 5.388565 6.221903 23.271248 -27.195243 -6.164906 9.334252 -45.075692 -8.086457 10.569434 -1.310631 -22.895673 8.762642 -0.553586 -3.182322 0.195772 31.149695 9.138671 13.002628 53.229163 9.149738 10.464353 -12.732783 18.220544 -13.157088 1.596883 4.103039 -12.665220 
-0.016434 2.837475 0.988390 0.806339 -1.234693 81.961078 -1.491182 -0.657300 9.715771 -2.675343 -12.739777 10.600321 5.348299 12.269936 -20.341733 0.000000 -0.000000 0.000000 -2.010691 -4.407020 -3.126052 0.134617 -5.759159 9.642372 3.101939 -12.529573 -15.233208 0.000000 -0.000000 0.000000 -1.350406 0.414776 8.796879 -0.209055 -3.075036 12.469841 -1.006605 -0.388203 0.008842 4.376677 9.382632 11.813652 5.446930 6.629199 23.854841 -26.605764 -5.459006 9.001881 -45.417656 -7.830998 10.665381 -1.184222 -23.085915 8.413043 -0.316737 -2.886366 -0.168960 30.770736 8.815923 12.991846 54.312394 9.316913 10.794926 -12.563967 17.549355 -13.133517 1.893624 3.957502 -12.797841 
-0.014119 2.846716 0.989184 0.092089 -1.108480 81.706194 -1.779846 -0.528822 9.915633 -2.121553 -12.712332 9.673349 5.539432 12.433282 -19.652634 0.000000 -0.000000 0.000000 -2.055593 -4.593367 -4.018682 0.158669 -6.166663 11.027735 2.433199 -12.589773 -15.455927 0.000000 -0.000000 0.000000 -1.640144 0.659714 8.872770 -0.201474 -2.727496 12.601885 -1.039370 -0.246297 -0.081015 4.282981 10.051306 12.024035 5.126017 7.095805 23.942529 -26.513698 -5.021539 8.707085 -45.535611 -7.086929 10.777095 -1.161304 -23.001810 7.537890 -0.796514 -1.883877 -0.511871 31.206723 8.681590 13.020585 54.124147 9.267072 10.950586 -12.417688 17.286370 -12.974784 2.640083 3.987465 -11.855524 
-0.013330 2.854671 0.990686 -0.205416 -1.036120 81.469058 -1.767195 -0.477112 10.015546 -1.959213 -12.872103 8.927512 5.643801 12.333060 -18.839550 0.000000 -0.000000 0.000000 -2.084298 -4.605908 -4.643935 0.200972 -6.358080 12.911917 1.931107 -12.631239 -15.732635 0.000000 -0.000000 0.000000 -2.093440 0.786485 8.858847 -0.241018 -2.402092 12.932314 -1.038603 -0.144829 -0.279606 4.361609 10.706219 11.971633 5.075845 7.478741 24.275830 -27.077193 -4.530294 8.539471 -44.764674 -6.933291 10.478057 -1.056592 -22.718319 7.427872 -0.397745 -3.159808 0.336229 31.974060 8.460182 13.102017 53.808571 9.252685 11.004945 -12.305106 17.067539 -12.638469 2.218922 4.295662 -10.955648 
